<mxfile host="app.diagrams.net" modified="2021-10-28T06:31:31.930Z" agent="5.0 (Windows NT 10.0; Win64; x64) AppleWebKit/537.36 (KHTML, like Gecko) Chrome/94.0.4606.81 Safari/537.36 Edg/94.0.992.50" etag="bPLNL93WDfVLv4hTYkgj" version="15.5.8" type="github">
  <diagram id="FIEFWtWOcGt9es1YW2cE" name="第 1 页">
    <mxGraphModel dx="1422" dy="833" grid="1" gridSize="10" guides="1" tooltips="1" connect="1" arrows="1" fold="1" page="1" pageScale="1" pageWidth="827" pageHeight="1169" math="0" shadow="0">
      <root>
        <mxCell id="0" />
        <mxCell id="1" parent="0" />
        <mxCell id="ypXxrbu6_z9xNNzj4wrC-1" value="契约锁Saas" style="rounded=0;whiteSpace=wrap;html=1;sketch=1;fillColor=#fff2cc;strokeColor=#d6b656;" vertex="1" parent="1">
          <mxGeometry x="118" y="80" width="522" height="30" as="geometry" />
        </mxCell>
        <mxCell id="ypXxrbu6_z9xNNzj4wrC-2" value="明源云·生态能力中心" style="rounded=0;whiteSpace=wrap;html=1;sketch=1;fillColor=#ffe6cc;strokeColor=#d79b00;" vertex="1" parent="1">
          <mxGeometry x="118" y="330" width="532" height="30" as="geometry" />
        </mxCell>
        <mxCell id="ypXxrbu6_z9xNNzj4wrC-7" value="" style="rounded=0;whiteSpace=wrap;html=1;sketch=1;" vertex="1" parent="1">
          <mxGeometry x="118" y="110" width="522" height="100" as="geometry" />
        </mxCell>
        <mxCell id="ypXxrbu6_z9xNNzj4wrC-8" value="" style="rounded=0;whiteSpace=wrap;html=1;sketch=1;" vertex="1" parent="1">
          <mxGeometry x="118" y="360" width="532" height="110" as="geometry" />
        </mxCell>
        <mxCell id="ypXxrbu6_z9xNNzj4wrC-10" value="" style="rounded=0;whiteSpace=wrap;html=1;sketch=1;" vertex="1" parent="1">
          <mxGeometry x="76" y="680" width="120" height="60" as="geometry" />
        </mxCell>
        <mxCell id="ypXxrbu6_z9xNNzj4wrC-13" value="ERP1" style="rounded=0;whiteSpace=wrap;html=1;sketch=1;fillColor=#ffe6cc;strokeColor=#d79b00;" vertex="1" parent="1">
          <mxGeometry x="76" y="660" width="120" height="20" as="geometry" />
        </mxCell>
        <mxCell id="ypXxrbu6_z9xNNzj4wrC-18" value="企业1" style="rounded=0;whiteSpace=wrap;html=1;sketch=1;" vertex="1" parent="1">
          <mxGeometry x="137" y="120" width="70" height="20" as="geometry" />
        </mxCell>
        <mxCell id="ypXxrbu6_z9xNNzj4wrC-19" value="印章管理&lt;br&gt;合同管理" style="rounded=0;whiteSpace=wrap;html=1;sketch=1;" vertex="1" parent="1">
          <mxGeometry x="137" y="140" width="70" height="40" as="geometry" />
        </mxCell>
        <mxCell id="ypXxrbu6_z9xNNzj4wrC-20" value="企业1" style="rounded=0;whiteSpace=wrap;html=1;sketch=1;fillColor=#f8cecc;strokeColor=#b85450;" vertex="1" parent="1">
          <mxGeometry x="137" y="120" width="70" height="20" as="geometry" />
        </mxCell>
        <mxCell id="ypXxrbu6_z9xNNzj4wrC-22" value="印章管理&lt;br&gt;合同管理" style="rounded=0;whiteSpace=wrap;html=1;sketch=1;" vertex="1" parent="1">
          <mxGeometry x="227" y="140" width="70" height="40" as="geometry" />
        </mxCell>
        <mxCell id="ypXxrbu6_z9xNNzj4wrC-23" value="企业2" style="rounded=0;whiteSpace=wrap;html=1;sketch=1;fillColor=#f8cecc;strokeColor=#b85450;" vertex="1" parent="1">
          <mxGeometry x="227" y="120" width="70" height="20" as="geometry" />
        </mxCell>
        <mxCell id="ypXxrbu6_z9xNNzj4wrC-24" value="印章管理&lt;br&gt;合同管理" style="rounded=0;whiteSpace=wrap;html=1;sketch=1;" vertex="1" parent="1">
          <mxGeometry x="327" y="140" width="70" height="40" as="geometry" />
        </mxCell>
        <mxCell id="ypXxrbu6_z9xNNzj4wrC-25" value="企业3" style="rounded=0;whiteSpace=wrap;html=1;sketch=1;fillColor=#f8cecc;strokeColor=#b85450;" vertex="1" parent="1">
          <mxGeometry x="327" y="120" width="70" height="20" as="geometry" />
        </mxCell>
        <mxCell id="ypXxrbu6_z9xNNzj4wrC-26" value="印章管理&lt;br&gt;合同管理" style="rounded=0;whiteSpace=wrap;html=1;sketch=1;" vertex="1" parent="1">
          <mxGeometry x="467" y="140" width="70" height="40" as="geometry" />
        </mxCell>
        <mxCell id="ypXxrbu6_z9xNNzj4wrC-27" value="企业 N" style="rounded=0;whiteSpace=wrap;html=1;sketch=1;fillColor=#f8cecc;strokeColor=#b85450;" vertex="1" parent="1">
          <mxGeometry x="467" y="120" width="70" height="20" as="geometry" />
        </mxCell>
        <mxCell id="ypXxrbu6_z9xNNzj4wrC-28" value="....." style="text;html=1;strokeColor=none;fillColor=none;align=center;verticalAlign=middle;whiteSpace=wrap;rounded=0;sketch=1;" vertex="1" parent="1">
          <mxGeometry x="397" y="390" width="60" height="30" as="geometry" />
        </mxCell>
        <mxCell id="ypXxrbu6_z9xNNzj4wrC-72" style="edgeStyle=orthogonalEdgeStyle;curved=1;rounded=0;orthogonalLoop=1;jettySize=auto;html=1;exitX=0.5;exitY=1;exitDx=0;exitDy=0;entryX=0.5;entryY=0;entryDx=0;entryDy=0;sketch=1;" edge="1" parent="1" source="ypXxrbu6_z9xNNzj4wrC-30" target="ypXxrbu6_z9xNNzj4wrC-13">
          <mxGeometry relative="1" as="geometry" />
        </mxCell>
        <mxCell id="ypXxrbu6_z9xNNzj4wrC-30" value="应用管理&lt;br&gt;配置管理" style="rounded=0;whiteSpace=wrap;html=1;sketch=1;" vertex="1" parent="1">
          <mxGeometry x="137" y="390" width="70" height="40" as="geometry" />
        </mxCell>
        <mxCell id="ypXxrbu6_z9xNNzj4wrC-42" style="edgeStyle=orthogonalEdgeStyle;rounded=0;orthogonalLoop=1;jettySize=auto;html=1;exitX=0.5;exitY=0;exitDx=0;exitDy=0;entryX=0.5;entryY=1;entryDx=0;entryDy=0;curved=1;sketch=1;" edge="1" parent="1" source="ypXxrbu6_z9xNNzj4wrC-31" target="ypXxrbu6_z9xNNzj4wrC-22">
          <mxGeometry relative="1" as="geometry" />
        </mxCell>
        <mxCell id="ypXxrbu6_z9xNNzj4wrC-43" style="edgeStyle=orthogonalEdgeStyle;curved=1;rounded=0;orthogonalLoop=1;jettySize=auto;html=1;exitX=0.25;exitY=0;exitDx=0;exitDy=0;sketch=1;" edge="1" parent="1" source="ypXxrbu6_z9xNNzj4wrC-31" target="ypXxrbu6_z9xNNzj4wrC-19">
          <mxGeometry relative="1" as="geometry" />
        </mxCell>
        <mxCell id="ypXxrbu6_z9xNNzj4wrC-31" value="应用1" style="rounded=0;whiteSpace=wrap;html=1;sketch=1;fillColor=#f8cecc;strokeColor=#b85450;" vertex="1" parent="1">
          <mxGeometry x="137" y="370" width="70" height="20" as="geometry" />
        </mxCell>
        <mxCell id="ypXxrbu6_z9xNNzj4wrC-73" style="edgeStyle=orthogonalEdgeStyle;curved=1;rounded=0;orthogonalLoop=1;jettySize=auto;html=1;exitX=0.5;exitY=1;exitDx=0;exitDy=0;entryX=0.5;entryY=0;entryDx=0;entryDy=0;sketch=1;" edge="1" parent="1" source="ypXxrbu6_z9xNNzj4wrC-32" target="ypXxrbu6_z9xNNzj4wrC-52">
          <mxGeometry relative="1" as="geometry" />
        </mxCell>
        <mxCell id="ypXxrbu6_z9xNNzj4wrC-32" value="应用管理&lt;br&gt;配置管理" style="rounded=0;whiteSpace=wrap;html=1;sketch=1;" vertex="1" parent="1">
          <mxGeometry x="227" y="390" width="70" height="40" as="geometry" />
        </mxCell>
        <mxCell id="ypXxrbu6_z9xNNzj4wrC-33" value="应用2" style="rounded=0;whiteSpace=wrap;html=1;sketch=1;fillColor=#f8cecc;strokeColor=#b85450;" vertex="1" parent="1">
          <mxGeometry x="227" y="370" width="70" height="20" as="geometry" />
        </mxCell>
        <mxCell id="ypXxrbu6_z9xNNzj4wrC-34" value="应用管理&lt;br&gt;配置管理" style="rounded=0;whiteSpace=wrap;html=1;sketch=1;" vertex="1" parent="1">
          <mxGeometry x="327" y="390" width="70" height="40" as="geometry" />
        </mxCell>
        <mxCell id="ypXxrbu6_z9xNNzj4wrC-35" value="应用3" style="rounded=0;whiteSpace=wrap;html=1;sketch=1;fillColor=#f8cecc;strokeColor=#b85450;" vertex="1" parent="1">
          <mxGeometry x="327" y="370" width="70" height="20" as="geometry" />
        </mxCell>
        <mxCell id="ypXxrbu6_z9xNNzj4wrC-74" style="edgeStyle=orthogonalEdgeStyle;curved=1;rounded=0;orthogonalLoop=1;jettySize=auto;html=1;exitX=0.25;exitY=1;exitDx=0;exitDy=0;entryX=0.5;entryY=0;entryDx=0;entryDy=0;sketch=1;" edge="1" parent="1" source="ypXxrbu6_z9xNNzj4wrC-36" target="ypXxrbu6_z9xNNzj4wrC-58">
          <mxGeometry relative="1" as="geometry" />
        </mxCell>
        <mxCell id="ypXxrbu6_z9xNNzj4wrC-36" value="应用管理&lt;br&gt;配置管理" style="rounded=0;whiteSpace=wrap;html=1;sketch=1;" vertex="1" parent="1">
          <mxGeometry x="327" y="390" width="70" height="40" as="geometry" />
        </mxCell>
        <mxCell id="ypXxrbu6_z9xNNzj4wrC-38" value="应用N" style="rounded=0;whiteSpace=wrap;html=1;sketch=1;fillColor=#f8cecc;strokeColor=#b85450;" vertex="1" parent="1">
          <mxGeometry x="467" y="370" width="70" height="20" as="geometry" />
        </mxCell>
        <mxCell id="ypXxrbu6_z9xNNzj4wrC-75" style="edgeStyle=orthogonalEdgeStyle;curved=1;rounded=0;orthogonalLoop=1;jettySize=auto;html=1;exitX=0.25;exitY=1;exitDx=0;exitDy=0;entryX=0.5;entryY=0;entryDx=0;entryDy=0;sketch=1;" edge="1" parent="1" source="ypXxrbu6_z9xNNzj4wrC-39" target="ypXxrbu6_z9xNNzj4wrC-64">
          <mxGeometry relative="1" as="geometry" />
        </mxCell>
        <mxCell id="ypXxrbu6_z9xNNzj4wrC-39" value="应用管理&lt;br&gt;配置管理" style="rounded=0;whiteSpace=wrap;html=1;sketch=1;" vertex="1" parent="1">
          <mxGeometry x="467" y="390" width="70" height="40" as="geometry" />
        </mxCell>
        <mxCell id="ypXxrbu6_z9xNNzj4wrC-40" value="....." style="text;html=1;strokeColor=none;fillColor=none;align=center;verticalAlign=middle;whiteSpace=wrap;rounded=0;sketch=1;" vertex="1" parent="1">
          <mxGeometry x="397" y="140" width="60" height="30" as="geometry" />
        </mxCell>
        <mxCell id="ypXxrbu6_z9xNNzj4wrC-77" style="edgeStyle=orthogonalEdgeStyle;curved=1;rounded=0;orthogonalLoop=1;jettySize=auto;html=1;exitX=0;exitY=0.5;exitDx=0;exitDy=0;entryX=0;entryY=0.5;entryDx=0;entryDy=0;dashed=1;sketch=1;" edge="1" parent="1" source="ypXxrbu6_z9xNNzj4wrC-45" target="ypXxrbu6_z9xNNzj4wrC-19">
          <mxGeometry relative="1" as="geometry">
            <Array as="points">
              <mxPoint x="60" y="690" />
              <mxPoint x="60" y="160" />
            </Array>
          </mxGeometry>
        </mxCell>
        <mxCell id="ypXxrbu6_z9xNNzj4wrC-45" value="子公司1" style="rounded=0;whiteSpace=wrap;html=1;sketch=1;" vertex="1" parent="1">
          <mxGeometry x="76" y="680" width="120" height="20" as="geometry" />
        </mxCell>
        <mxCell id="ypXxrbu6_z9xNNzj4wrC-78" style="edgeStyle=orthogonalEdgeStyle;curved=1;rounded=0;orthogonalLoop=1;jettySize=auto;html=1;exitX=0;exitY=0.25;exitDx=0;exitDy=0;entryX=0.25;entryY=0;entryDx=0;entryDy=0;dashed=1;sketch=1;" edge="1" parent="1" source="ypXxrbu6_z9xNNzj4wrC-46" target="ypXxrbu6_z9xNNzj4wrC-23">
          <mxGeometry relative="1" as="geometry">
            <Array as="points">
              <mxPoint x="20" y="705" />
              <mxPoint x="20" y="60" />
              <mxPoint x="245" y="60" />
            </Array>
          </mxGeometry>
        </mxCell>
        <mxCell id="ypXxrbu6_z9xNNzj4wrC-46" value="子公司2" style="rounded=0;whiteSpace=wrap;html=1;sketch=1;" vertex="1" parent="1">
          <mxGeometry x="76" y="700" width="120" height="20" as="geometry" />
        </mxCell>
        <mxCell id="ypXxrbu6_z9xNNzj4wrC-47" value="子公司..." style="rounded=0;whiteSpace=wrap;html=1;sketch=1;" vertex="1" parent="1">
          <mxGeometry x="76" y="720" width="120" height="20" as="geometry" />
        </mxCell>
        <mxCell id="ypXxrbu6_z9xNNzj4wrC-48" value="子公司..." style="rounded=0;whiteSpace=wrap;html=1;sketch=1;" vertex="1" parent="1">
          <mxGeometry x="76" y="720" width="120" height="20" as="geometry" />
        </mxCell>
        <mxCell id="ypXxrbu6_z9xNNzj4wrC-51" value="" style="rounded=0;whiteSpace=wrap;html=1;sketch=1;" vertex="1" parent="1">
          <mxGeometry x="247" y="680" width="120" height="60" as="geometry" />
        </mxCell>
        <mxCell id="ypXxrbu6_z9xNNzj4wrC-52" value="ERP2" style="rounded=0;whiteSpace=wrap;html=1;sketch=1;fillColor=#ffe6cc;strokeColor=#d79b00;" vertex="1" parent="1">
          <mxGeometry x="247" y="660" width="120" height="20" as="geometry" />
        </mxCell>
        <mxCell id="ypXxrbu6_z9xNNzj4wrC-53" value="子公司1" style="rounded=0;whiteSpace=wrap;html=1;sketch=1;" vertex="1" parent="1">
          <mxGeometry x="247" y="680" width="120" height="20" as="geometry" />
        </mxCell>
        <mxCell id="ypXxrbu6_z9xNNzj4wrC-54" value="子公司2" style="rounded=0;whiteSpace=wrap;html=1;sketch=1;" vertex="1" parent="1">
          <mxGeometry x="247" y="700" width="120" height="20" as="geometry" />
        </mxCell>
        <mxCell id="ypXxrbu6_z9xNNzj4wrC-55" value="子公司..." style="rounded=0;whiteSpace=wrap;html=1;sketch=1;" vertex="1" parent="1">
          <mxGeometry x="247" y="720" width="120" height="20" as="geometry" />
        </mxCell>
        <mxCell id="ypXxrbu6_z9xNNzj4wrC-56" value="子公司..." style="rounded=0;whiteSpace=wrap;html=1;sketch=1;" vertex="1" parent="1">
          <mxGeometry x="247" y="720" width="120" height="20" as="geometry" />
        </mxCell>
        <mxCell id="ypXxrbu6_z9xNNzj4wrC-57" value="" style="rounded=0;whiteSpace=wrap;html=1;sketch=1;" vertex="1" parent="1">
          <mxGeometry x="397" y="680" width="120" height="60" as="geometry" />
        </mxCell>
        <mxCell id="ypXxrbu6_z9xNNzj4wrC-58" value="ERP3" style="rounded=0;whiteSpace=wrap;html=1;sketch=1;fillColor=#ffe6cc;strokeColor=#d79b00;" vertex="1" parent="1">
          <mxGeometry x="397" y="660" width="120" height="20" as="geometry" />
        </mxCell>
        <mxCell id="ypXxrbu6_z9xNNzj4wrC-59" value="子公司1" style="rounded=0;whiteSpace=wrap;html=1;sketch=1;" vertex="1" parent="1">
          <mxGeometry x="397" y="680" width="120" height="20" as="geometry" />
        </mxCell>
        <mxCell id="ypXxrbu6_z9xNNzj4wrC-60" value="子公司2" style="rounded=0;whiteSpace=wrap;html=1;sketch=1;" vertex="1" parent="1">
          <mxGeometry x="397" y="700" width="120" height="20" as="geometry" />
        </mxCell>
        <mxCell id="ypXxrbu6_z9xNNzj4wrC-61" value="子公司..." style="rounded=0;whiteSpace=wrap;html=1;sketch=1;" vertex="1" parent="1">
          <mxGeometry x="397" y="720" width="120" height="20" as="geometry" />
        </mxCell>
        <mxCell id="ypXxrbu6_z9xNNzj4wrC-62" value="子公司..." style="rounded=0;whiteSpace=wrap;html=1;sketch=1;" vertex="1" parent="1">
          <mxGeometry x="397" y="720" width="120" height="20" as="geometry" />
        </mxCell>
        <mxCell id="ypXxrbu6_z9xNNzj4wrC-63" value="" style="rounded=0;whiteSpace=wrap;html=1;sketch=1;" vertex="1" parent="1">
          <mxGeometry x="589" y="680" width="120" height="60" as="geometry" />
        </mxCell>
        <mxCell id="ypXxrbu6_z9xNNzj4wrC-64" value="ERPN" style="rounded=0;whiteSpace=wrap;html=1;sketch=1;fillColor=#ffe6cc;strokeColor=#d79b00;" vertex="1" parent="1">
          <mxGeometry x="589" y="660" width="120" height="20" as="geometry" />
        </mxCell>
        <mxCell id="ypXxrbu6_z9xNNzj4wrC-65" value="子公司1" style="rounded=0;whiteSpace=wrap;html=1;sketch=1;" vertex="1" parent="1">
          <mxGeometry x="589" y="680" width="120" height="20" as="geometry" />
        </mxCell>
        <mxCell id="ypXxrbu6_z9xNNzj4wrC-66" value="子公司2" style="rounded=0;whiteSpace=wrap;html=1;sketch=1;" vertex="1" parent="1">
          <mxGeometry x="589" y="700" width="120" height="20" as="geometry" />
        </mxCell>
        <mxCell id="ypXxrbu6_z9xNNzj4wrC-67" value="子公司..." style="rounded=0;whiteSpace=wrap;html=1;sketch=1;" vertex="1" parent="1">
          <mxGeometry x="589" y="720" width="120" height="20" as="geometry" />
        </mxCell>
        <mxCell id="ypXxrbu6_z9xNNzj4wrC-68" value="子公司..." style="rounded=0;whiteSpace=wrap;html=1;sketch=1;" vertex="1" parent="1">
          <mxGeometry x="589" y="720" width="120" height="20" as="geometry" />
        </mxCell>
        <mxCell id="ypXxrbu6_z9xNNzj4wrC-76" value="....." style="text;html=1;strokeColor=none;fillColor=none;align=center;verticalAlign=middle;whiteSpace=wrap;rounded=0;sketch=1;" vertex="1" parent="1">
          <mxGeometry x="527" y="690" width="60" height="30" as="geometry" />
        </mxCell>
      </root>
    </mxGraphModel>
  </diagram>
</mxfile>
